<mxfile host="app.diagrams.net" modified="2021-06-24T15:13:51.958Z" agent="5.0 (X11; Linux x86_64) AppleWebKit/537.36 (KHTML, like Gecko) Chrome/91.0.4472.114 Safari/537.36" etag="lFlhlmAcdHvOoZt2H8GI" version="14.7.7" type="github">
  <diagram id="mjgqmSHZGCYBxVDJmJig" name="Page-1">
    <mxGraphModel dx="2575" dy="1575" grid="1" gridSize="10" guides="1" tooltips="1" connect="1" arrows="1" fold="1" page="1" pageScale="2" pageWidth="827" pageHeight="1169" math="0" shadow="0">
      <root>
        <mxCell id="0" />
        <mxCell id="1" parent="0" />
        <mxCell id="FAwiAq0qkd5cn3caJAeM-73" value="" style="rounded=0;whiteSpace=wrap;html=1;fontSize=25;align=right;fontStyle=0" parent="1" vertex="1">
          <mxGeometry x="223" y="323" width="149" height="147" as="geometry" />
        </mxCell>
        <mxCell id="16TBc1RyOengqVH6E9E0-25" value="" style="rounded=0;whiteSpace=wrap;html=1;fontSize=25;fontStyle=0" parent="1" vertex="1">
          <mxGeometry x="394.18" y="190" width="340" height="313" as="geometry" />
        </mxCell>
        <mxCell id="16TBc1RyOengqVH6E9E0-18" style="rounded=0;orthogonalLoop=1;jettySize=auto;html=1;exitX=0.5;exitY=1;exitDx=0;exitDy=0;entryX=0.228;entryY=0;entryDx=0;entryDy=0;entryPerimeter=0;fontSize=25;startArrow=blockThin;startFill=1;endArrow=classicThin;endFill=1;strokeWidth=1;fontStyle=0" parent="1" source="16TBc1RyOengqVH6E9E0-1" target="16TBc1RyOengqVH6E9E0-12" edge="1">
          <mxGeometry relative="1" as="geometry" />
        </mxCell>
        <mxCell id="16TBc1RyOengqVH6E9E0-1" value="" style="whiteSpace=wrap;html=1;aspect=fixed;fontStyle=0;fontSize=25;" parent="1" vertex="1">
          <mxGeometry x="416.18" y="203" width="128.82" height="128.82" as="geometry" />
        </mxCell>
        <mxCell id="16TBc1RyOengqVH6E9E0-4" value="L2" style="rounded=0;whiteSpace=wrap;html=1;fontSize=25;fillColor=#ffe6cc;strokeColor=#d79b00;fontStyle=0" parent="1" vertex="1">
          <mxGeometry x="424.18" y="283" width="110" height="30" as="geometry" />
        </mxCell>
        <mxCell id="16TBc1RyOengqVH6E9E0-6" value="&lt;font style=&quot;font-size: 25px;&quot;&gt;L1 D&lt;/font&gt;" style="rounded=0;whiteSpace=wrap;html=1;fontSize=25;fillColor=#ffe6cc;strokeColor=#d79b00;fontStyle=0" parent="1" vertex="1">
          <mxGeometry x="482.18" y="233" width="58.82" height="30" as="geometry" />
        </mxCell>
        <mxCell id="16TBc1RyOengqVH6E9E0-7" value="&lt;font style=&quot;font-size: 25px;&quot;&gt;L1 I&lt;/font&gt;" style="rounded=0;whiteSpace=wrap;html=1;fontSize=25;fillColor=#ffe6cc;strokeColor=#d79b00;fontStyle=0" parent="1" vertex="1">
          <mxGeometry x="421.18" y="233" width="50" height="30" as="geometry" />
        </mxCell>
        <mxCell id="16TBc1RyOengqVH6E9E0-8" value="" style="whiteSpace=wrap;html=1;aspect=fixed;fontStyle=0;fontSize=25;" parent="1" vertex="1">
          <mxGeometry x="574.1800000000001" y="203" width="130" height="130" as="geometry" />
        </mxCell>
        <mxCell id="16TBc1RyOengqVH6E9E0-9" value="L2" style="rounded=0;whiteSpace=wrap;html=1;fontSize=25;fillColor=#ffe6cc;strokeColor=#d79b00;fontStyle=0" parent="1" vertex="1">
          <mxGeometry x="584.1800000000001" y="283" width="110" height="30" as="geometry" />
        </mxCell>
        <mxCell id="16TBc1RyOengqVH6E9E0-10" value="&lt;font style=&quot;font-size: 25px;&quot;&gt;L1 D&lt;/font&gt;" style="rounded=0;whiteSpace=wrap;html=1;fontSize=25;fillColor=#ffe6cc;strokeColor=#d79b00;fontStyle=0" parent="1" vertex="1">
          <mxGeometry x="640.18" y="233" width="58.82" height="30" as="geometry" />
        </mxCell>
        <mxCell id="16TBc1RyOengqVH6E9E0-11" value="&lt;font style=&quot;font-size: 25px;&quot;&gt;L1 I&lt;/font&gt;" style="rounded=0;whiteSpace=wrap;html=1;fontSize=25;fillColor=#ffe6cc;strokeColor=#d79b00;fontStyle=0" parent="1" vertex="1">
          <mxGeometry x="580.1800000000001" y="233" width="50" height="30" as="geometry" />
        </mxCell>
        <mxCell id="16TBc1RyOengqVH6E9E0-12" value="LLC" style="rounded=0;whiteSpace=wrap;html=1;fontSize=25;fillColor=#ffe6cc;strokeColor=#d79b00;fontStyle=0" parent="1" vertex="1">
          <mxGeometry x="414.18" y="363" width="290" height="50" as="geometry" />
        </mxCell>
        <mxCell id="16TBc1RyOengqVH6E9E0-13" value="NVM" style="rounded=0;whiteSpace=wrap;html=1;fontSize=25;fillColor=#dae8fc;strokeColor=#6c8ebf;fontStyle=0" parent="1" vertex="1">
          <mxGeometry x="394.18" y="528" width="340" height="80" as="geometry" />
        </mxCell>
        <mxCell id="16TBc1RyOengqVH6E9E0-23" style="edgeStyle=none;rounded=0;orthogonalLoop=1;jettySize=auto;html=1;exitX=0.5;exitY=1;exitDx=0;exitDy=0;fontSize=25;startArrow=blockThin;startFill=1;endArrow=classicThin;endFill=1;strokeWidth=1;fontStyle=0" parent="1" source="16TBc1RyOengqVH6E9E0-14" edge="1">
          <mxGeometry relative="1" as="geometry">
            <mxPoint x="559.1800000000001" y="533" as="targetPoint" />
          </mxGeometry>
        </mxCell>
        <mxCell id="16TBc1RyOengqVH6E9E0-14" value="MC" style="rounded=0;whiteSpace=wrap;html=1;fontSize=25;fillColor=#dae8fc;strokeColor=#6c8ebf;fontStyle=0" parent="1" vertex="1">
          <mxGeometry x="414.18" y="443" width="290" height="40" as="geometry" />
        </mxCell>
        <mxCell id="16TBc1RyOengqVH6E9E0-16" value="WPQ" style="rounded=0;whiteSpace=wrap;html=1;fontSize=25;fillColor=#f8cecc;strokeColor=#b85450;fontStyle=0" parent="1" vertex="1">
          <mxGeometry x="604.1800000000001" y="453" width="90" height="20" as="geometry" />
        </mxCell>
        <mxCell id="16TBc1RyOengqVH6E9E0-19" style="rounded=0;orthogonalLoop=1;jettySize=auto;html=1;entryX=0.228;entryY=0;entryDx=0;entryDy=0;entryPerimeter=0;fontSize=25;startArrow=blockThin;startFill=1;endArrow=classicThin;endFill=1;strokeWidth=1;fontStyle=0;exitX=0.5;exitY=1;exitDx=0;exitDy=0;" parent="1" source="16TBc1RyOengqVH6E9E0-8" edge="1">
          <mxGeometry relative="1" as="geometry">
            <mxPoint x="640" y="340" as="sourcePoint" />
            <mxPoint x="639.7399999999999" y="363" as="targetPoint" />
          </mxGeometry>
        </mxCell>
        <mxCell id="16TBc1RyOengqVH6E9E0-20" style="rounded=0;orthogonalLoop=1;jettySize=auto;html=1;exitX=0.5;exitY=1;exitDx=0;exitDy=0;entryX=0.228;entryY=0;entryDx=0;entryDy=0;entryPerimeter=0;fontSize=25;startArrow=blockThin;startFill=1;endArrow=classicThin;endFill=1;strokeWidth=1;fontStyle=0" parent="1" edge="1">
          <mxGeometry relative="1" as="geometry">
            <mxPoint x="558.1800000000001" y="413" as="sourcePoint" />
            <mxPoint x="559.3" y="443" as="targetPoint" />
          </mxGeometry>
        </mxCell>
        <mxCell id="FAwiAq0qkd5cn3caJAeM-68" value="PBarrier( )" style="text;html=1;strokeColor=none;fillColor=none;align=center;verticalAlign=middle;whiteSpace=wrap;rounded=0;fontSize=25;fontStyle=0" parent="1" vertex="1">
          <mxGeometry x="210" y="365" width="155" height="20" as="geometry" />
        </mxCell>
        <mxCell id="FAwiAq0qkd5cn3caJAeM-69" value="Store (A,1)" style="text;html=1;strokeColor=none;fillColor=none;align=center;verticalAlign=middle;whiteSpace=wrap;rounded=0;fontSize=25;fontStyle=0" parent="1" vertex="1">
          <mxGeometry x="230" y="333" width="125" height="20" as="geometry" />
        </mxCell>
        <mxCell id="FAwiAq0qkd5cn3caJAeM-70" value="Store (B,1)" style="text;html=1;strokeColor=none;fillColor=none;align=center;verticalAlign=middle;whiteSpace=wrap;rounded=0;fontSize=25;fontStyle=0" parent="1" vertex="1">
          <mxGeometry x="223" y="396" width="130" height="20" as="geometry" />
        </mxCell>
        <mxCell id="FAwiAq0qkd5cn3caJAeM-107" value="1" style="rounded=0;whiteSpace=wrap;html=1;fontSize=25;align=center;fontStyle=0" parent="1" vertex="1">
          <mxGeometry x="454.18" y="558" width="40" height="20" as="geometry" />
        </mxCell>
        <mxCell id="FAwiAq0qkd5cn3caJAeM-108" value="A" style="text;html=1;strokeColor=none;fillColor=none;align=center;verticalAlign=middle;whiteSpace=wrap;rounded=0;fontSize=25;fontStyle=0" parent="1" vertex="1">
          <mxGeometry x="424.18" y="558" width="40" height="20" as="geometry" />
        </mxCell>
        <mxCell id="FAwiAq0qkd5cn3caJAeM-109" value="1" style="rounded=0;whiteSpace=wrap;html=1;fontSize=25;align=center;fontStyle=0" parent="1" vertex="1">
          <mxGeometry x="463.18" y="378" width="40" height="20" as="geometry" />
        </mxCell>
        <mxCell id="FAwiAq0qkd5cn3caJAeM-110" value="B" style="text;html=1;strokeColor=none;fillColor=none;align=center;verticalAlign=middle;whiteSpace=wrap;rounded=0;fontSize=25;fontStyle=0" parent="1" vertex="1">
          <mxGeometry x="433.18" y="378" width="40" height="20" as="geometry" />
        </mxCell>
        <mxCell id="FAwiAq0qkd5cn3caJAeM-113" value="" style="rounded=0;whiteSpace=wrap;html=1;fontSize=25;fontStyle=0" parent="1" vertex="1">
          <mxGeometry x="849.09" y="190" width="340" height="313" as="geometry" />
        </mxCell>
        <mxCell id="FAwiAq0qkd5cn3caJAeM-114" style="rounded=0;orthogonalLoop=1;jettySize=auto;html=1;exitX=0.5;exitY=1;exitDx=0;exitDy=0;entryX=0.228;entryY=0;entryDx=0;entryDy=0;entryPerimeter=0;fontSize=25;startArrow=blockThin;startFill=1;endArrow=classicThin;endFill=1;strokeWidth=1;fontStyle=0" parent="1" source="FAwiAq0qkd5cn3caJAeM-115" target="FAwiAq0qkd5cn3caJAeM-123" edge="1">
          <mxGeometry relative="1" as="geometry" />
        </mxCell>
        <mxCell id="FAwiAq0qkd5cn3caJAeM-115" value="" style="whiteSpace=wrap;html=1;aspect=fixed;fontStyle=0;fontSize=25;" parent="1" vertex="1">
          <mxGeometry x="869.09" y="203" width="133.91" height="133.91" as="geometry" />
        </mxCell>
        <mxCell id="FAwiAq0qkd5cn3caJAeM-116" value="L2" style="rounded=0;whiteSpace=wrap;html=1;fontSize=25;fillColor=#ffe6cc;strokeColor=#d79b00;fontStyle=0" parent="1" vertex="1">
          <mxGeometry x="879.0899999999999" y="283" width="110" height="30" as="geometry" />
        </mxCell>
        <mxCell id="FAwiAq0qkd5cn3caJAeM-117" value="&lt;font style=&quot;font-size: 25px;&quot;&gt;L1 D&lt;/font&gt;" style="rounded=0;whiteSpace=wrap;html=1;fontSize=25;fillColor=#ffe6cc;strokeColor=#d79b00;fontStyle=0" parent="1" vertex="1">
          <mxGeometry x="936.09" y="233" width="63.91" height="30" as="geometry" />
        </mxCell>
        <mxCell id="FAwiAq0qkd5cn3caJAeM-118" value="&lt;font style=&quot;font-size: 25px;&quot;&gt;L1 I&lt;/font&gt;" style="rounded=0;whiteSpace=wrap;html=1;fontSize=25;fillColor=#ffe6cc;strokeColor=#d79b00;fontStyle=0" parent="1" vertex="1">
          <mxGeometry x="875.0899999999999" y="233" width="50" height="30" as="geometry" />
        </mxCell>
        <mxCell id="FAwiAq0qkd5cn3caJAeM-119" value="" style="whiteSpace=wrap;html=1;aspect=fixed;fontStyle=0;fontSize=25;" parent="1" vertex="1">
          <mxGeometry x="1029.0900000000001" y="203" width="137" height="137" as="geometry" />
        </mxCell>
        <mxCell id="FAwiAq0qkd5cn3caJAeM-120" value="L2" style="rounded=0;whiteSpace=wrap;html=1;fontSize=25;fillColor=#ffe6cc;strokeColor=#d79b00;fontStyle=0" parent="1" vertex="1">
          <mxGeometry x="1039.0900000000001" y="283" width="110" height="30" as="geometry" />
        </mxCell>
        <mxCell id="FAwiAq0qkd5cn3caJAeM-121" value="&lt;font style=&quot;font-size: 25px;&quot;&gt;L1 D&lt;/font&gt;" style="rounded=0;whiteSpace=wrap;html=1;fontSize=25;fillColor=#ffe6cc;strokeColor=#d79b00;fontStyle=0" parent="1" vertex="1">
          <mxGeometry x="1091.09" y="233" width="63.91" height="30" as="geometry" />
        </mxCell>
        <mxCell id="FAwiAq0qkd5cn3caJAeM-122" value="&lt;font style=&quot;font-size: 25px;&quot;&gt;L1 I&lt;/font&gt;" style="rounded=0;whiteSpace=wrap;html=1;fontSize=25;fillColor=#ffe6cc;strokeColor=#d79b00;fontStyle=0" parent="1" vertex="1">
          <mxGeometry x="1034.0900000000001" y="233" width="50" height="30" as="geometry" />
        </mxCell>
        <mxCell id="FAwiAq0qkd5cn3caJAeM-123" value="LLC" style="rounded=0;whiteSpace=wrap;html=1;fontSize=25;fillColor=#ffe6cc;strokeColor=#d79b00;fontStyle=0" parent="1" vertex="1">
          <mxGeometry x="869.0899999999999" y="363" width="290" height="50" as="geometry" />
        </mxCell>
        <mxCell id="FAwiAq0qkd5cn3caJAeM-124" value="NVM" style="rounded=0;whiteSpace=wrap;html=1;fontSize=25;fillColor=#dae8fc;strokeColor=#6c8ebf;fontStyle=0" parent="1" vertex="1">
          <mxGeometry x="849.0899999999999" y="528" width="340" height="80" as="geometry" />
        </mxCell>
        <mxCell id="FAwiAq0qkd5cn3caJAeM-125" style="edgeStyle=none;rounded=0;orthogonalLoop=1;jettySize=auto;html=1;exitX=0.5;exitY=1;exitDx=0;exitDy=0;fontSize=25;startArrow=blockThin;startFill=1;endArrow=classicThin;endFill=1;strokeWidth=1;fontStyle=0" parent="1" source="FAwiAq0qkd5cn3caJAeM-126" edge="1">
          <mxGeometry relative="1" as="geometry">
            <mxPoint x="1014.0900000000001" y="533" as="targetPoint" />
          </mxGeometry>
        </mxCell>
        <mxCell id="FAwiAq0qkd5cn3caJAeM-126" value="MC" style="rounded=0;whiteSpace=wrap;html=1;fontSize=25;fillColor=#dae8fc;strokeColor=#6c8ebf;fontStyle=0" parent="1" vertex="1">
          <mxGeometry x="869.0899999999999" y="443" width="290" height="40" as="geometry" />
        </mxCell>
        <mxCell id="FAwiAq0qkd5cn3caJAeM-127" value="WPQ" style="rounded=0;whiteSpace=wrap;html=1;fontSize=25;fillColor=#f8cecc;strokeColor=#b85450;fontStyle=0" parent="1" vertex="1">
          <mxGeometry x="1059.0900000000001" y="453" width="90" height="20" as="geometry" />
        </mxCell>
        <mxCell id="FAwiAq0qkd5cn3caJAeM-128" style="rounded=0;orthogonalLoop=1;jettySize=auto;html=1;exitX=0.5;exitY=1;exitDx=0;exitDy=0;entryX=0.228;entryY=0;entryDx=0;entryDy=0;entryPerimeter=0;fontSize=25;startArrow=blockThin;startFill=1;endArrow=classicThin;endFill=1;strokeWidth=1;fontStyle=0" parent="1" edge="1">
          <mxGeometry relative="1" as="geometry">
            <mxPoint x="1093.5299999999997" y="333" as="sourcePoint" />
            <mxPoint x="1094.6499999999996" y="363" as="targetPoint" />
          </mxGeometry>
        </mxCell>
        <mxCell id="FAwiAq0qkd5cn3caJAeM-129" style="rounded=0;orthogonalLoop=1;jettySize=auto;html=1;exitX=0.5;exitY=1;exitDx=0;exitDy=0;entryX=0.228;entryY=0;entryDx=0;entryDy=0;entryPerimeter=0;fontSize=25;startArrow=blockThin;startFill=1;endArrow=classicThin;endFill=1;strokeWidth=1;fontStyle=0" parent="1" edge="1">
          <mxGeometry relative="1" as="geometry">
            <mxPoint x="1013.0900000000001" y="413" as="sourcePoint" />
            <mxPoint x="1014.21" y="443" as="targetPoint" />
          </mxGeometry>
        </mxCell>
        <mxCell id="FAwiAq0qkd5cn3caJAeM-132" value="1" style="rounded=0;whiteSpace=wrap;html=1;fontSize=25;align=center;fontStyle=0" parent="1" vertex="1">
          <mxGeometry x="909.0899999999999" y="558" width="40" height="20" as="geometry" />
        </mxCell>
        <mxCell id="FAwiAq0qkd5cn3caJAeM-133" value="A" style="text;html=1;strokeColor=none;fillColor=none;align=center;verticalAlign=middle;whiteSpace=wrap;rounded=0;fontSize=25;fontStyle=0" parent="1" vertex="1">
          <mxGeometry x="879.0899999999999" y="558" width="40" height="20" as="geometry" />
        </mxCell>
        <mxCell id="FAwiAq0qkd5cn3caJAeM-140" value=".&lt;br style=&quot;font-size: 25px;&quot;&gt;." style="text;html=1;strokeColor=none;fillColor=none;align=center;verticalAlign=middle;whiteSpace=wrap;rounded=0;fontSize=25;fontStyle=0" parent="1" vertex="1">
          <mxGeometry x="231" y="423" width="90" height="20" as="geometry" />
        </mxCell>
        <mxCell id="CRLOc1WB8V-iHWx_uGIP-1" value="" style="verticalLabelPosition=bottom;verticalAlign=top;html=1;shape=mxgraph.basic.8_point_star;fontSize=25;align=center;strokeColor=#B20000;fontStyle=0;fillColor=#FF9999;" parent="1" vertex="1">
          <mxGeometry x="665.18" y="309" width="95.82" height="91" as="geometry" />
        </mxCell>
        <mxCell id="CRLOc1WB8V-iHWx_uGIP-5" value="" style="html=1;shadow=0;dashed=0;align=center;verticalAlign=middle;shape=mxgraph.arrows2.arrow;dy=0.6;dx=40;notch=0;fontSize=25;fontStyle=0" parent="1" vertex="1">
          <mxGeometry x="760" y="335" width="80" height="33" as="geometry" />
        </mxCell>
        <mxCell id="CRLOc1WB8V-iHWx_uGIP-6" value="crash" style="text;html=1;strokeColor=none;fillColor=none;align=center;verticalAlign=middle;whiteSpace=wrap;rounded=0;fontSize=25;fontStyle=0" parent="1" vertex="1">
          <mxGeometry x="693.0000000000001" y="342" width="40" height="20" as="geometry" />
        </mxCell>
        <mxCell id="CRLOc1WB8V-iHWx_uGIP-17" value="" style="html=1;shadow=0;dashed=0;align=center;verticalAlign=middle;shape=mxgraph.arrows2.arrow;dy=0.67;dx=20;notch=0;fontSize=25;fontColor=#FFFFFF;fillColor=#0000FF;fontStyle=0" parent="1" vertex="1">
          <mxGeometry x="343" y="415" width="45" height="10" as="geometry" />
        </mxCell>
        <mxCell id="rw0pJkleUwbmweoXINBP-5" value="" style="rounded=0;whiteSpace=wrap;html=1;fontSize=25;strokeWidth=2;strokeColor=#666666;fontColor=#333333;fontStyle=0;fillColor=none;dashed=1;" parent="1" vertex="1">
          <mxGeometry x="392.18" y="422" width="385" height="210" as="geometry" />
        </mxCell>
        <mxCell id="rw0pJkleUwbmweoXINBP-6" value="persistent domain" style="text;html=1;strokeColor=none;fillColor=none;align=center;verticalAlign=middle;whiteSpace=wrap;rounded=0;fontSize=25;rotation=270;fontStyle=0;fontFamily=Helvetica;" parent="1" vertex="1">
          <mxGeometry x="637.05" y="513.5" width="226.63" height="20" as="geometry" />
        </mxCell>
        <mxCell id="rw0pJkleUwbmweoXINBP-7" value="" style="rounded=0;whiteSpace=wrap;html=1;fontSize=25;strokeWidth=2;strokeColor=#666666;fontColor=#333333;fontStyle=0;fillColor=none;dashed=1;" parent="1" vertex="1">
          <mxGeometry x="847.0899999999999" y="418.5" width="385" height="210" as="geometry" />
        </mxCell>
        <mxCell id="rw0pJkleUwbmweoXINBP-8" value="persistent domain" style="text;html=1;strokeColor=none;fillColor=none;align=center;verticalAlign=middle;whiteSpace=wrap;rounded=0;fontSize=25;rotation=270;fontStyle=0;fontFamily=Helvetica;" parent="1" vertex="1">
          <mxGeometry x="1091.96" y="509" width="226.63" height="20" as="geometry" />
        </mxCell>
      </root>
    </mxGraphModel>
  </diagram>
</mxfile>
